<svg xmlns="http://www.w3.org/2000/svg" xmlns:xlink="http://www.w3.org/1999/xlink" width="128" height="126"><defs><path id="a" d="M799 4330c-34.1 0-62-27.9-62-62s27.9-62 62-62 62 27.9 62 62-27.9 62-62 62zm0-119.87c-31.83 0-57.87 26.04-57.87 57.87s26.04 57.87 57.87 57.87 57.87-26.04 57.87-57.87-26.04-57.87-57.87-57.87zm47.79 71.12c0 .2-.01.4-.05.6a46.36 46.36 0 0 1-5.17 11.78c-.13.17-.28.32-.44.46A49.68 49.68 0 0 1 799 4317.6c-4.6 0-9.05-.64-13.29-1.82-.25.02-.5.01-.76-.04a46.36 46.36 0 0 1-11.78-5.17c-.26-.19-.47-.42-.64-.68a50.18 50.18 0 0 1-21.68-29.9l-.04-.29a49.25 49.25 0 0 1 .4-24.95c0-.13.02-.26.05-.39a46.37 46.37 0 0 1 5.29-11.93 50.18 50.18 0 0 1 30.46-22.58l.29-.04a49.24 49.24 0 0 1 24.95.4c.2 0 .4.01.6.05a46.35 46.35 0 0 1 11.78 5.17c.17.13.32.28.46.44a50.18 50.18 0 0 1 22.06 30.14l.04.29a49.25 49.25 0 0 1-.4 24.95zm-10.19 12.23l-10.73-4.6c-1.66-.63-3.52-.42-4.76.82-.41.41-1.03 1.03-1.65 1.45a4.08 4.08 0 0 0-1.03 4.54l4.3 11.04a46.03 46.03 0 0 0 13.87-13.25zm-37.6 19.99c2.94 0 5.83-.29 8.62-.83l-4.28-10.95A4.6 4.6 0 0 0 799 4299h-1.65a4.96 4.96 0 0 0-4.14 2.48l-4.77 10.74c3.4.81 6.93 1.25 10.56 1.25zm-25.6-7.96l4.73-10.64c.62-1.66.41-3.52-.83-4.76l-1.45-1.44a4.08 4.08 0 0 0-4.54-1.04l-10.94 4.27a46.02 46.02 0 0 0 13.02 13.61zM753.52 4268c0 2.94.29 5.83.83 8.62l10.95-4.28a4.31 4.31 0 0 0 2.69-4.13v-1.66c0-1.65-1.03-3.3-2.48-3.92l-10.83-4.82a45.18 45.18 0 0 0-1.16 10.19zm7.74-25.29l10.86 4.83c1.66.62 3.52.41 4.76-.83l1.44-1.44a4.08 4.08 0 0 0 1.04-4.55l-4.3-11.33a46.03 46.03 0 0 0-13.8 13.32zm37.73-20.18c-2.94 0-5.83.3-8.62.83l4.28 10.95a4.31 4.31 0 0 0 4.13 2.69h1.66c1.65.2 3.3-1.03 4.13-2.48l4.8-10.78c-3.34-.79-6.81-1.2-10.38-1.2zm25.48 7.87l-4.6 10.73c-.63 1.66-.42 3.52.82 4.76l1.45 1.44a4.08 4.08 0 0 0 4.54 1.04l10.94-4.27a46.03 46.03 0 0 0-13.15-13.7zm15.2 17.36l-11.33 4.53c-3.31 1.24-7.03.42-9.1-2.06l-1.24-1.24c-2.48-2.28-3.1-6-1.65-9.3l4.92-11.28a45.28 45.28 0 0 0-6.02-2.85 28.4 28.4 0 0 0-1.59-.55l-4.96 11.16a8.59 8.59 0 0 1-8.06 4.96c-.41 0-1.03-.2-1.44 0-3.72 0-6.82-2.06-8.06-5.37l-4.55-11.37a49.33 49.33 0 0 0-7.65 3.1l4.55 11.58c1.24 3.3.41 7.02-2.07 9.09-.41.41-.82.83-1.44 1.24-2.28 2.48-6 3.1-9.3 1.65l-11.37-4.96a50.23 50.23 0 0 0-3.3 7.65l11.15 4.96a8.39 8.39 0 0 1 4.96 8.06v1.45c0 3.72-2.06 6.82-5.37 8.06l-11.37 4.54a49.34 49.34 0 0 0 3.1 7.65l11.37-4.55c3.3-1.24 7.03-.41 9.1 2.07l1.23 1.24c2.48 2.27 3.1 6 1.66 9.3l-4.9 11.2a45.27 45.27 0 0 0 7.62 3.38l4.92-11.07a8.39 8.39 0 0 1 8.06-4.96c.42-.2 1.04-.2 1.45-.2 3.72 0 6.82 2.06 8.06 5.37l4.55 11.37a49.34 49.34 0 0 0 7.64-3.1l-4.54-11.37c-1.24-3.3-.42-7.03 2.06-9.1.42-.4.83-.82 1.45-1.23 2.27-2.48 6-3.1 9.3-1.66l11.2 4.9a45.27 45.27 0 0 0 3.38-7.62l-11.07-4.92a8.39 8.39 0 0 1-4.96-8.06V4268c0-3.72 2.07-6.82 5.38-8.06l11.24-4.5a45.16 45.16 0 0 0-3.01-7.68zm3.96 11.62l-10.95 4.28a4.31 4.31 0 0 0-2.69 4.13v1.66c0 1.65 1.03 3.3 2.48 4.13l10.78 4.8a45.18 45.18 0 0 0 .38-19zm-66.99 6.14v-.01z"/><path id="b" d="M813.47 4276.27a8.3 8.3 0 0 1-8.27-8.27 8.3 8.3 0 0 1 8.27-8.27 8.3 8.3 0 0 1 8.26 8.27 8.3 8.3 0 0 1-8.26 8.27zm0-12.4a4.15 4.15 0 0 0-4.14 4.13 4.15 4.15 0 0 0 4.14 4.13 4.15 4.15 0 0 0 4.13-4.13 4.15 4.15 0 0 0-4.13-4.13zM799 4261.8a8.3 8.3 0 0 1-8.27-8.27 8.3 8.3 0 0 1 8.27-8.26 8.3 8.3 0 0 1 8.27 8.26 8.3 8.3 0 0 1-8.27 8.27zm0-12.4a4.15 4.15 0 0 0-4.13 4.13 4.15 4.15 0 0 0 4.13 4.14 4.15 4.15 0 0 0 4.13-4.14 4.15 4.15 0 0 0-4.13-4.13zm-14.47 26.87a8.3 8.3 0 0 1-8.26-8.27 8.3 8.3 0 0 1 8.26-8.27 8.3 8.3 0 0 1 8.27 8.27 8.3 8.3 0 0 1-8.27 8.27zm0-12.4a4.15 4.15 0 0 0-4.13 4.13 4.15 4.15 0 0 0 4.13 4.13 4.15 4.15 0 0 0 4.14-4.13 4.15 4.15 0 0 0-4.14-4.13zM799 4274.2a8.3 8.3 0 0 1 8.27 8.27 8.3 8.3 0 0 1-8.27 8.26 8.3 8.3 0 0 1-8.27-8.26 8.3 8.3 0 0 1 8.27-8.27zm0 12.4a4.15 4.15 0 0 0 4.13-4.13 4.15 4.15 0 0 0-4.13-4.14 4.15 4.15 0 0 0-4.13 4.14 4.15 4.15 0 0 0 4.13 4.13z"/></defs><use fill="#fff" xlink:href="#a" transform="translate(-735 -4205)"/><use fill="#df3636" xlink:href="#b" transform="translate(-735 -4205)"/></svg>