<svg xmlns="http://www.w3.org/2000/svg" xmlns:xlink="http://www.w3.org/1999/xlink" width="103" height="103"><defs><path id="a" d="M1435 4254v.01l-.02-.01zm-24.44 49.68a27.15 27.15 0 0 1-27.12-27.12 27.15 27.15 0 0 1 27.12-27.12 27.15 27.15 0 0 1 27.11 27.12 27.15 27.15 0 0 1-27.11 27.12zm0-47.99a20.9 20.9 0 0 0-20.87 20.87c0 11.5 9.36 20.87 20.87 20.87 11.5 0 20.86-9.36 20.86-20.87a20.9 20.9 0 0 0-20.86-20.87zm0 35.69a14.83 14.83 0 0 1-14.82-14.82c0-8.17 6.65-14.82 14.82-14.82s14.82 6.65 14.82 14.82-6.65 14.82-14.82 14.82zm0-20.66a5.85 5.85 0 1 0 0 11.69 5.85 5.85 0 0 0 0-11.7z"/><path id="b" d="M1457.8 4267.72a8.95 8.95 0 0 0-7.83 8.84 8.96 8.96 0 0 0 7.83 8.84 3.13 3.13 0 0 1 2.64 3.88 51.06 51.06 0 0 1-5.62 13.56 3.12 3.12 0 0 1-4.6.88 9.15 9.15 0 0 0-11.78.73 8.96 8.96 0 0 0-.72 11.78 3.15 3.15 0 0 1-.88 4.6 51.4 51.4 0 0 1-13.56 5.61 3.13 3.13 0 0 1-3.88-2.63 8.95 8.95 0 0 0-8.84-7.83 8.95 8.95 0 0 0-8.84 7.83 3.15 3.15 0 0 1-3.87 2.63 51.32 51.32 0 0 1-13.56-5.62 3.13 3.13 0 0 1-.88-4.6 8.95 8.95 0 0 0-.72-11.78 9.15 9.15 0 0 0-11.79-.71 3.13 3.13 0 0 1-4.6-.89 51.15 51.15 0 0 1-5.61-13.57c-.22-.87-.05-1.79.45-2.53a3.1 3.1 0 0 1 2.18-1.34 8.95 8.95 0 0 0 7.83-8.83 8.96 8.96 0 0 0-7.83-8.84 3.16 3.16 0 0 1-2.63-3.87 50.98 50.98 0 0 1 5.62-13.57 3.13 3.13 0 0 1 4.6-.88 9.15 9.15 0 0 0 11.78-.72 8.95 8.95 0 0 0 .72-11.79 3.12 3.12 0 0 1 .86-4.6 51.5 51.5 0 0 1 13.56-5.62 3.13 3.13 0 0 1 3.88 2.63 8.95 8.95 0 0 0 8.83 7.83 8.96 8.96 0 0 0 8.84-7.83 3.13 3.13 0 0 1 3.88-2.63 51.31 51.31 0 0 1 13.57 5.62 3.11 3.11 0 0 1 .88 4.6 8.95 8.95 0 0 0 .71 11.78 9.15 9.15 0 0 0 11.79.72 3.14 3.14 0 0 1 4.6.88c2.52 4.23 4.4 8.8 5.62 13.57a3.13 3.13 0 0 1-2.63 3.87zm-6.87-11.5a15.3 15.3 0 0 1-6.23 1.33c-4.03 0-7.83-1.57-10.69-4.43a15.2 15.2 0 0 1-3.1-16.93c-2-1-4.06-1.85-6.19-2.56a15.21 15.21 0 0 1-14.15 9.77 15.2 15.2 0 0 1-14.16-9.77c-2.13.7-4.2 1.56-6.2 2.56a15.2 15.2 0 0 1-3.09 16.93 15.02 15.02 0 0 1-10.7 4.43c-2.14 0-4.27-.47-6.23-1.34-1 2-1.86 4.07-2.56 6.2a15.22 15.22 0 0 1 9.78 14.16c0 6.36-4.02 11.94-9.78 14.15.7 2.12 1.56 4.2 2.56 6.2a15.3 15.3 0 0 1 6.24-1.34c4.04 0 7.84 1.57 10.69 4.43a15.2 15.2 0 0 1 3.1 16.92c1.99 1 4.06 1.86 6.19 2.56a15.2 15.2 0 0 1 14.16-9.77c6.37 0 11.94 4.01 14.15 9.77 2.13-.7 4.2-1.55 6.2-2.56a15.22 15.22 0 0 1 3.1-16.92 15.4 15.4 0 0 1 16.91-3.1c1.01-2 1.87-4.06 2.57-6.19a15.2 15.2 0 0 1-9.78-14.15c0-6.38 4.01-11.95 9.78-14.16a45.01 45.01 0 0 0-2.57-6.2z"/></defs><use fill="#fff" xlink:href="#a" transform="translate(-1359 -4225)"/><use fill="#df3636" xlink:href="#b" transform="translate(-1359 -4225)"/></svg>