<svg xmlns="http://www.w3.org/2000/svg" xmlns:xlink="http://www.w3.org/1999/xlink" width="103" height="122"><defs><path id="a" d="M1142.52 4274.78c.97-.4 2.09.06 2.5 1.03l15.82 38.02a1.9 1.9 0 0 1-.35 1.99c-.48.54-1.24.76-1.95.56l-15.4-4.44-7.72 13.97a1.9 1.9 0 0 1-3.43-.2l-17.25-41.43a38.41 38.41 0 0 1-31.45-12l-16.38 39.35 13.05-3.76c.85-.25 1.77.13 2.2.9l6.55 11.85 13.27-31.87a1.91 1.91 0 0 1 3.52 1.45l-14.78 35.52a1.9 1.9 0 0 1-3.44.19l-7.73-13.97-15.4 4.44c-.7.2-1.45-.02-1.94-.56a1.9 1.9 0 0 1-.34-2l18.65-44.82a37.92 37.92 0 0 1-7.6-22.81c0-21.09 17.24-38.25 38.43-38.25 21.2 0 38.43 17.16 38.43 38.25 0 18.6-13.42 34.15-31.14 37.55l15.35 36.88 6.55-11.85a1.91 1.91 0 0 1 2.2-.9l13.05 3.76-14.3-34.37a1.9 1.9 0 0 1 1.03-2.48zm3.45-28.6c0-18.99-15.53-34.44-34.62-34.44-19.09 0-34.61 15.45-34.61 34.45 0 19 15.52 34.45 34.61 34.45s34.62-15.46 34.62-34.45zm-65.42 0a30.76 30.76 0 0 1 30.8-30.64 30.83 30.83 0 0 1 30.53 26.6 1.9 1.9 0 1 1-3.78.5 27.01 27.01 0 0 0-26.75-23.3 26.95 26.95 0 0 0-26.99 26.85 27.01 27.01 0 1 0 53.74 3.55 1.9 1.9 0 0 1 3.78.5 30.83 30.83 0 0 1-30.53 26.6 30.76 30.76 0 0 1-30.8-30.65z"/><path id="b" d="M1132.94 4240.98l-9.12 9.24 1.92 12.8a1.9 1.9 0 0 1-1.89 2.19c-.29 0-.58-.07-.85-.2l-11.65-5.78-11.65 5.78c-.63.31-1.4.25-1.97-.17a1.9 1.9 0 0 1-.76-1.81l1.91-12.81-9.11-9.24a1.9 1.9 0 0 1 1.04-3.2l12.84-2.15 6.01-11.48a1.9 1.9 0 0 1 3.38 0l6.02 11.48 12.83 2.15a1.9 1.9 0 1 1 1.05 3.2zm-15.45-1.76a1.9 1.9 0 0 1-1.38-1l-4.76-9.09-4.76 9.1c-.28.52-.79.9-1.38 1l-10.16 1.69 7.22 7.31c.42.43.61 1.03.53 1.61l-1.52 10.15 9.22-4.57a1.91 1.91 0 0 1 1.7 0l9.22 4.57-1.51-10.15a1.9 1.9 0 0 1 .52-1.6l7.22-7.32zm11.43 27.42h-.15c.05-.04.1-.1.15-.13z"/></defs><use fill="#fff" xlink:href="#a" transform="translate(-1060 -4206)"/><use fill="#df3636" xlink:href="#b" transform="translate(-1060 -4206)"/></svg>